<svg xmlns="http://www.w3.org/2000/svg" width="23" height="24" viewBox="0 0 23 24">
    <path fill="#242C49" fill-rule="nonzero" d="M11.279.286c.767.001 1.395.364 1.681.97.273.579.178 1.282-.248 1.835-.57.74-.74 1.591-.481 2.337a44.75 44.75 0 0 1 1.062-.648c2.078-1.228 4.129-2.219 5.775-2.79 1.948-.674 3.03-.679 3.405-.014.337.597-.066 1.422-1.27 2.596-.788.77-1.895 1.653-3.178 2.54 1.34.249 2.453.87 3.26 1.827.936 1.111 1.418 2.604 1.394 4.316-.016 1.177-.283 2.419-.77 3.59a10.816 10.816 0 0 1-5.666 5.76c-1.45.63-3.05.949-4.752.949-3.164 0-6.212-1.376-8.361-3.775-2.188-2.442-3.238-5.638-2.955-9C.41 7.987 1.698 5.355 3.8 3.366 5.815 1.462 8.331.378 10.92.29l.338-.005h.02zm-.001.909h-.02c-5.176 0-9.75 4.334-10.199 9.662-.26 3.105.707 6.056 2.725 8.308 1.982 2.211 4.79 3.48 7.707 3.48 6.28 0 10.237-4.881 10.3-9.403.036-2.512-1.245-5.234-4.944-5.343h-.007c-.433.276-.878.55-1.328.817a42.31 42.31 0 0 1-2.638 1.438c-1.54.769-2.962 1.34-4.05 1.633a2.264 2.264 0 0 1-1.059 1.487c-.505.299-1.562.374-2.503.374a21.95 21.95 0 0 1-1.717-.071.443.443 0 0 1-.348-.226.464.464 0 0 1-.017-.422c.233-.504 1.444-3.046 2.366-3.591a2.162 2.162 0 0 1 1.824-.183c.727-.748 1.789-1.625 3.047-2.518l.349-.243c.229-.159.463-.316.7-.473-.451-1.077-.25-2.354.549-3.393.217-.282.272-.61.146-.876-.137-.29-.459-.456-.883-.457zm-1.12 16.84c.98 0 1.776.815 1.776 1.817s-.796 1.818-1.775 1.818c-.98 0-1.776-.816-1.776-1.818 0-1.002.797-1.818 1.776-1.818zm0 .908a.9.9 0 0 0-.887.91.9.9 0 0 0 .888.908.9.9 0 0 0 .887-.909.9.9 0 0 0-.887-.909zm5.326-1.818c.98 0 1.775.816 1.775 1.818 0 1.003-.796 1.818-1.775 1.818-.979 0-1.775-.815-1.775-1.818 0-1.002.796-1.818 1.775-1.818zm0 .91a.9.9 0 0 0-.887.908.9.9 0 0 0 .887.91.9.9 0 0 0 .888-.91.9.9 0 0 0-.888-.909zm-9.763-2.727c.978 0 1.775.815 1.775 1.817 0 1.003-.797 1.818-1.775 1.818-.98 0-1.776-.815-1.776-1.818 0-1.002.797-1.817 1.776-1.817zm0 .909a.9.9 0 0 0-.888.908.9.9 0 0 0 .888.91.9.9 0 0 0 .887-.91.9.9 0 0 0-.887-.908zm9.316-3.264l.08.005c.242.037.41.268.374.516-.173 1.194-1.096 2.165-2.47 2.597a4.824 4.824 0 0 1-2.367.125c-.854-.175-1.593-.589-2.137-1.195a.462.462 0 0 1 .027-.643.437.437 0 0 1 .627.028c.94 1.048 2.48 1.165 3.59.816 1.038-.327 1.73-1.022 1.852-1.861a.45.45 0 0 1 .346-.378l.078-.01zm3.998-.372c.979 0 1.775.815 1.775 1.818 0 1.002-.796 1.818-1.775 1.818-.98 0-1.776-.816-1.776-1.818 0-1.003.797-1.818 1.776-1.818zm0 .909a.9.9 0 0 0-.888.909.9.9 0 0 0 .888.909.9.9 0 0 0 .887-.91.9.9 0 0 0-.887-.908zM5.99 10.125c-.42.249-1.17 1.51-1.714 2.588 1.184.055 2.626.022 3.045-.227.388-.228.636-.638.664-1.095a1.386 1.386 0 0 0-.176-.767 1.338 1.338 0 0 0-.536-.526 1.3 1.3 0 0 0-1.283.027zm9.05.431a.45.45 0 0 1 .444.455.45.45 0 0 1-.444.454.45.45 0 0 1-.443-.454.45.45 0 0 1 .443-.455zm-4.087-3.193c-1.14.806-2.107 1.593-2.794 2.272a2.262 2.262 0 0 1 .67 1.209c.918-.27 2.068-.733 3.32-1.342a5.987 5.987 0 0 0-1.196-2.139zm8.17-4.43c-1.552.563-3.465 1.499-5.386 2.634a43.44 43.44 0 0 0-2.042 1.285A6.843 6.843 0 0 1 12.954 9.1a42.183 42.183 0 0 0 3.626-2.107c1.547-1.003 2.915-2.041 3.851-2.924 1.122-1.058 1.25-1.528 1.264-1.634-.163-.08-.863-.12-2.572.5zM7.94 3.096c.979 0 1.775.816 1.775 1.818 0 1.002-.796 1.818-1.775 1.818-.98 0-1.776-.816-1.776-1.818 0-1.002.797-1.818 1.776-1.818zm0 .909a.9.9 0 0 0-.888.909.9.9 0 0 0 .888.909.9.9 0 0 0 .887-.91.9.9 0 0 0-.887-.908z"/>
</svg>
