<svg xmlns="http://www.w3.org/2000/svg" width="20" height="20" viewBox="0 0 20 20">
    <path fill="#FFF" fill-rule="evenodd" d="M7.568.003a.948.948 0 0 0-.846.741L5.654 5.24h-3.71a.942.942 0 0 0-.747.31.94.94 0 0 0-.246.684.947.947 0 0 0 .994.905h3.264l-1.35 5.698H.995a.942.942 0 0 0-.747.31.94.94 0 0 0-.247.684.947.947 0 0 0 .994.905h2.419l-.965 4.05a.947.947 0 0 0 1.44 1.089.948.948 0 0 0 .4-.658l1.069-4.481h6.602l-.964 4.05a.947.947 0 0 0 1.44 1.089.948.948 0 0 0 .4-.658l1.068-4.481h4.184a.952.952 0 0 0 .679-1.627.945.945 0 0 0-.68-.272H14.35l1.35-5.698h3.338a.952.952 0 0 0 .679-1.627.945.945 0 0 0-.679-.272h-2.893l.965-4.065a.951.951 0 0 0-.995-1.172.948.948 0 0 0-.845.741L14.2 5.24H7.598l.964-4.065A.951.951 0 0 0 7.568.003zm-.415 7.136h6.602l-1.35 5.698H5.803l1.35-5.698z"/>
</svg>
